<svg xmlns="http://www.w3.org/2000/svg" viewBox="0 0 560.4 114.75"><defs><style>.cls-1{fill:red;stroke:red;stroke-miterlimit:10;stroke-width:0.75px;}</style></defs><title>Asset 1</title><g id="Layer_2" data-name="Layer 2"><g id="Layer_1-2" data-name="Layer 1"><path class="cls-1" d="M59.53,41.64c6.71,7.13,13.61,14.1,20.05,21.46,3.1,3.54,5.19,3.13,7.66-.25A10.56,10.56,0,0,1,89,61.07c3-2.55,2.57-4.85-.1-7.49C79.55,44.32,70.41,34.87,61,25.65a9.59,9.59,0,0,1-3.31-7.83C58,12.07,57.79,6.3,57.79.4c3.47.23,5.32,2.21,7.18,4Q86.51,25.63,108,46.9c6.69,6.66,6.69,14.3-.08,21.07C93.64,82.21,79.26,96.31,64.93,110.46a17,17,0,0,1-2.28,1.94c-1.21.83-2.51,2.24-4,1.63-1.68-.7-.68-2.62-.86-4-.13-1,.11-2,0-3-1.61-10.19,1.3-18.52,10-24.55,2.93-2,2.82-4.19,0-6.18-8.67-6-11.45-14.36-10-24.56.43-2.92.07-6,.07-8.94Z"/><path class="cls-1" d="M55.64,41.48c0,8.32-.1,15.47,0,22.61.07,3.45-2.78,4.69-4.52,6.78-2.53,3-7.71,5.26-7.51,8.74.17,2.92,4.5,5.85,7.41,8.28a12.07,12.07,0,0,1,4.67,11.3,85.58,85.58,0,0,0,0,12c.18,4.06-1.62,3.71-4,2a32.66,32.66,0,0,1-4.15-3.57Q26.79,89,6.13,68.29c-7.72-7.74-7.68-14,.12-21.85Q26.55,26.11,46.9,5.83c.71-.71,1.41-1.42,2.14-2.1,1.71-1.57,3.69-4,5.8-3.12,1.88.82.47,3.9.82,5.94,1.95,11.38-2.07,19.94-11.18,27.09-6.64,5.2-12.13,11.86-18.15,17.86s-5.79,5.77-.21,11.77c2.78,3,4.53,3.23,7.42.11C39.43,57,45.71,51.06,51.85,45,52.77,44,53.77,43.19,55.64,41.48Z"/><path class="cls-1" d="M559.06,22.72c-5.27,5.86-10.24,11.4-15.23,16.93-5.27,5.83-5.26,5.8-.84,12,5.38,7.55,10.72,15.13,16.69,23.56-4.59,0-8.18-.06-11.76,0-2.06,0-2.85-1.48-3.82-2.77-3.3-4.4-6.44-8.92-9.87-13.2-1.25-1.56-2.13-5.08-4.23-4-2.57,1.26-5.23,3.67-5.34,7.26a77.85,77.85,0,0,0,0,9c.38,4.38-2.57,4-5.17,3.71s-6.41,1.84-6.37-3.54q.15-23,0-46c0-5.35,3.88-3.28,6.41-3.55s5.39-.54,5.18,3.78a74.07,74.07,0,0,0,1,17.31c4-4.31,8.53-8.24,11.85-13C542.87,22.55,549.66,20.42,559.06,22.72Z"/><path class="cls-1" d="M187.65,41c0-4.66.29-9.34-.08-14s2.16-5,5.76-4.91c3.33.09,6.16-.31,6,4.69-.31,8.31,0,16.64.08,25a15.9,15.9,0,0,0,2.12,8.59,10.29,10.29,0,0,0,17.78,0,18.24,18.24,0,0,0,2.29-9.58c0-7.82.36-15.65.09-23.46-.15-4.32,1.5-5.11,5.46-5.26,4.94-.19,6.65,1.08,6.36,6.3-.48,8.46.25,17-.12,25.45-.7,16.24-13.45,25.52-29.29,21.69-9.34-2.26-15.68-9.37-16.4-19-.38-5.13-.07-10.31-.07-15.47Z"/><path class="cls-1" d="M340.81,76a33.84,33.84,0,0,1-18.48-6.9c-2.17-1.59-3-3-.73-5.05a13.31,13.31,0,0,0,2.23-2.68c1.59-2.59,3.09-3.19,5.7-.88a19.55,19.55,0,0,0,12.17,5.21c3.49.16,7-.37,7.95-4.4s-2.24-5.52-5.36-6.56c-4.1-1.36-8.33-2.34-12.35-3.88-7.75-3-10.62-7.67-10.11-15.8.41-6.59,4.88-11.72,12-13.55,8.53-2.18,16.47-.38,24,3.88,1.88,1.07,3.75,2.51,1.33,4.43-2.1,1.66-1.5,7.7-6.83,4.49A21.48,21.48,0,0,0,340,30.9c-3.19.15-5.63,1.46-6.15,4.71-.47,3,1.7,4.57,4.18,5.45,2.81,1,5.73,1.71,8.6,2.51,11.87,3.33,16.37,9.18,14.89,19.36C360.39,70.82,352.27,76.2,340.81,76Z"/><path class="cls-1" d="M458.63,48.19C458.77,36.33,464.24,27.66,475,23c11.22-4.79,21.8-3,31.19,5.07,1.85,1.58,2.61,2.87.38,4.68a9.91,9.91,0,0,0-2,2.23c-1.89,2.87-3.4,3.52-6.45.73-5.71-5.22-14.7-5.32-20.87-1-5.95,4.15-8.27,11.59-6,19.13,3.43,11.29,16.9,15.33,26.25,7.27,5.62-4.84,6.53,1.06,8.84,3,3.52,3-.73,4.27-2.19,5.45-9.52,7.73-20.2,8.43-30.92,3.29C463.23,68.08,458.49,59.44,458.63,48.19Z"/><path class="cls-1" d="M459.69,74.57a7.5,7.5,0,0,1-1.07.43C448,76,448,76,443.75,66.22c-4-9.26-8-18.51-12.49-28.85-4.51,10.39-8.51,19.65-12.55,28.9-4.37,10-4.38,10-15.6,8.51.59-3.32,2.29-6.18,3.58-9.19,5.69-13.29,11.62-26.48,17-39.89,1.77-4.42,4.88-3.56,8.07-3.68s5.42-.09,7,3.72C445.42,42,452.56,58.07,459.69,74.57Z"/><path class="cls-1" d="M143.82,48.94c0-7.5.13-15-.06-22.49-.08-3.21.92-4.4,4.23-4.34,9.49.17,19,.27,28.48,0,4.73-.15,3.8,2.78,4,5.53s-.13,4.7-3.86,4.5c-5.65-.3-11.33.09-17-.14-3.35-.14-4.55,1.12-4.13,4.32a11.05,11.05,0,0,1,0,3c-.53,3.65.8,5.11,4.64,4.88,5-.3,10,.22,15-.15s3.9,3,4.21,5.81c.38,3.46-.83,4.73-4.4,4.53-5-.28-10,.14-15-.14-3.63-.2-4.6,1.22-4.38,4.61.27,4.32,0,8.66.18,13,.12,2.7-.62,3.76-3.57,3.83-8.68.21-8.66.35-8.64-8.22,0-6.16,0-12.33,0-18.49Z"/><path class="cls-1" d="M386.46,22c5.83,0,11.66.17,17.47-.05,4.46-.17,3.53,2.81,3.61,5.34s.37,5-3.68,4.72c-3.59-.22-8.34-1.65-10.58.66-2.63,2.71-.82,7.59-.89,11.52-.16,9-.31,18,0,27,.18,4.67-2.58,4.22-5.38,4s-6.58,1.69-6.45-4c.27-11.48,0-23,.14-34.45.06-3.59-.83-5.36-4.7-4.85-1.64.22-3.36-.18-5,.08-4.68.72-6.07-1.23-5.85-5.78.15-3.22,1-4.39,4.27-4.24C375.13,22.21,380.8,22,386.46,22Z"/><path class="cls-1" d="M241.28,49.23c0-7.81.15-15.63-.05-23.43-.14-5.39,3.72-3.32,6.23-3.58,2.68-.28,5.23-.48,5.18,3.79-.14,11.13.39,22.28.08,33.41-.14,4.83,1.55,6,5.93,5.65,4.63-.33,9.31.1,14-.12,4.3-.2,3.36,2.8,3.23,5s1.66,5.68-3.12,5.62c-9.47-.12-19-.13-28.42,0-3.1.05-3.49-1.42-3.45-4,.11-7.48,0-15,0-22.44Z"/><path class="cls-1" d="M282.35,49c0-7.66.21-15.34-.08-23-.17-4.32,2.43-4,5.11-3.79s6.32-1.56,6.28,3.73c-.09,11,.37,22,.12,33-.11,4.68,1,6.65,6,6.16,4.62-.45,9.33,0,14-.12s3,3.41,3.14,5.64,1,5.12-3.25,5c-9.49-.2-19-.14-28.49,0-2.78,0-3.31-1.22-3.27-3.64.1-7.66,0-15.33,0-23Z"/><path class="cls-1" d="M414.88,97.73c0,3.11,0,6.23,0,9.34,0,.93.09,2.22-1.39,2-1-.13-.93-1.21-.93-2,0-4.16,0-8.32,0-12.49,0-1.21.07-2.34,1.77-2.36A2.41,2.41,0,0,1,416.93,94c1.25,3.42,2.6,6.79,4.24,11,1.38-3.57,2.41-6.34,3.51-9.07.71-1.77,1-4.3,3.79-3.6,2.36.58,1.24,2.76,1.3,4.22.15,3.49.07,7,0,10.49,0,.92.11,2.23-1.37,2-1-.13-.93-1.2-.94-2a42.08,42.08,0,0,0-.79-9.59q-1.92,4.95-3.84,9.9c-.3.78-.51,1.69-1.48,1.82-1.32.18-1.55-.93-1.9-1.85l-3.67-9.73Z"/><path class="cls-1" d="M431.22,57.52c2.27,5.67,4.18,10.4,6,15.15.33.85.94,1.83-.21,2.63-.64.44-11.29.4-11.82-.07-.78-.69-.44-1.47-.14-2.22C427,68.15,428.93,63.29,431.22,57.52Z"/><path class="cls-1" d="M326.39,107.79c.25.72.18,1.34-.67,1.52s-1.47-.28-2-1c-4.15-5.47-5.08-5.46-9.51,0-.56.7-1.24,1.33-2.07.89s-.48-1.44-.19-2.19c1.68-4.34,3.32-8.69,5.12-13,.78-1.86,2.42-2.92,3.54-.54C322.76,98.14,324.48,103,326.39,107.79Z"/><path class="cls-1" d="M256.5,107.68c.16,1,0,1.55-.83,1.64s-1.42-.46-1.95-1.21c-3.68-5.23-5.59-5.23-9.25,0-.5.71-1,1.49-1.93,1.21-1.52-.47-.7-1.55-.38-2.39,1.6-4.19,3.19-8.38,4.86-12.54.68-1.68,2.28-3.45,3.47-1.16C252.93,97.87,254.6,103,256.5,107.68Z"/><path class="cls-1" d="M346.46,100.93a2.7,2.7,0,0,1,0-1c1.1-2.6-2.93-7.52,3.51-7.71s10.22,2.42,10.69,7.77c.42,4.84-2.36,8.56-7,9.27-1.14.18-2.33.06-3.48.2-2.72.32-4.05-.63-3.74-3.56A46.67,46.67,0,0,0,346.46,100.93Zm11.56.21c0-4.05-2.23-6.15-6.06-6.41-4.93-.34-2.29,3.6-2.91,5.66-.27.91.06,2-.06,3-.49,3.76,1.62,4.21,4.5,3.53S357.89,104.16,358,101.15Z"/><path class="cls-1" d="M291.42,96.51c-4.16-.76-8.41-4.57-12,.75a6,6,0,0,0-.13,7c3.43,5.25,7.78,2,12.06.88-2,3.91-5,5.18-8.83,4.39-4.28-.88-6.57-3.76-6.9-8s1.61-7.59,5.63-9S289,92,291.42,96.51Z"/><path class="cls-1" d="M390.53,93.38c-1.07,2.88-6.15-.92-6.15,3.71,0,4.79,5.18.59,6.17,3.69-.74,1.93-2.48,1.14-3.8,1.2-1.64.07-2.4.6-2.38,2.33s.44,2.75,2.49,2.84c1.22.06,3.64-1,3.46,1.27-.14,1.76-2.45.78-3.79,1-4,.74-5.27-1.11-4.82-4.92a55,55,0,0,0,0-6.45C381.74,91.63,383.78,90.52,390.53,93.38Z"/><path class="cls-1" d="M455.83,99.49c2.75-2.23,1.77-6.71,6.42-7.27-1.44,5.68-5.86,10.08-4.94,16,.1.63-.67,1.09-1.42,1a1.1,1.1,0,0,1-1.12-1.31c.73-5.19-2.34-9.17-4.24-13.53-.3-.69-1.1-1.52.05-2a1.56,1.56,0,0,1,2.12.75C453.74,95.21,454.74,97.28,455.83,99.49Z"/></g></g></svg>